<?xml version="1.0" encoding="UTF-8" standalone="no"?>
<svg width="484px" height="490px" viewBox="0 0 484 490" version="1.1" xmlns="http://www.w3.org/2000/svg" xmlns:xlink="http://www.w3.org/1999/xlink">
    <!-- Generator: Sketch 41.2 (35397) - http://www.bohemiancoding.com/sketch -->
    <title>Group</title>
    <desc>Created with Sketch.</desc>
    <defs></defs>
    <g id="Page-1" stroke="none" stroke-width="1" fill="none" fill-rule="evenodd">
        <g id="Group" fill="#000000">
            <path d="M327.5,406.6 C304.6,406.6 286.8,425.4 286.8,448.3 C286.8,471.2 305.6,490 327.5,490 C349.4,490 368.2,471.2 368.2,448.3 C368.2,425.4 349.4,406.6 327.5,406.6 Z M327.5,469.1 C316,469.1 307.7,459.7 307.7,448.2 C307.7,436.7 317.1,427.3 327.5,427.3 C337.9,427.3 347.3,436.7 347.3,448.2 C347.3,459.7 337.9,469.1 327.5,469.1 Z M64.7,448.3 C64.7,471.2 83.5,490 105.4,490 C128.3,490 146.1,471.2 146.1,448.3 C146.1,425.4 127.3,406.6 105.4,406.6 C82.5,406.6 64.7,425.4 64.7,448.3 Z M85.6,448.2 C85.6,436.7 95,427.3 105.4,427.3 C116.9,427.3 125.2,436.7 125.2,448.2 C125.2,459.8 115.9,469.1 105.4,469.1 C93.9,469.1 85.6,459.7 85.6,448.2 Z M409.3,63.6 L0.1,63.6 L75.6,287.3 C50.3,291 31.4,312.4 31.4,339.9 C31.4,370.1 54.3,394.1 83.5,394.1 L367.1,394.1 L367.1,374.3 L83.5,374.3 C65.8,374.3 52.2,359.7 52.2,340.9 C52.2,322.1 66.8,307.5 83.5,307.5 L367.1,307.5 L442.1,20.8 L483.8,20.8 L483.8,2.13162821e-14 L425.5,2.13162821e-14 L409.3,63.6 Z M352.5,286.7 L97.1,286.7 L29.3,84.4 L403.6,84.4 L352.5,286.7 Z" id="Combined-Shape" transform="translate(241.950000, 245.000000) scale(-1, 1) translate(-241.950000, -245.000000) "></path>
            <path d="M178.485601,203.025558 C172.294179,198.37307 171.484988,190.108399 176.680775,184.563176 L176.680775,184.563176 C181.875419,179.019172 191.110645,178.300209 197.297072,182.948943 L243.579956,217.727792 C249.771379,222.38028 250.580569,230.644951 245.384783,236.190174 L245.384783,236.190174 C240.190138,241.734178 230.954913,242.453142 224.768485,237.804407" id="Rectangle-path"></path>
            <path d="M320.232009,127.258997 C325.745623,121.964048 335.005304,121.671773 340.916989,126.608605 L340.916989,126.608605 C346.827374,131.544353 347.156686,139.830609 341.635407,145.132919 L249.105837,233.992845 C243.592222,239.287794 234.332541,239.580069 228.420856,234.643237 L228.420856,234.643237 C222.510471,229.707489 222.181159,221.421233 227.702439,216.118923" id="Rectangle-path"></path>
        </g>
    </g>
</svg>