<?xml version="1.0" encoding="UTF-8" standalone="no"?>
<svg width="19px" height="19px" viewBox="0 0 19 19" version="1.1" xmlns="http://www.w3.org/2000/svg" xmlns:xlink="http://www.w3.org/1999/xlink">
    <!-- Generator: Sketch 41.1 (35376) - http://www.bohemiancoding.com/sketch -->
    <title>hold</title>
    <desc>Created with Sketch.</desc>
    <defs></defs>
    <g id="Page-1" stroke="none" stroke-width="1" fill="none" fill-rule="evenodd">
        <g id="hold" transform="translate(3.000000, 3.000000)" fill="#ED9C28">
            <path d="M6.5,15.4375 C11.436045,15.4375 15.4375,11.436045 15.4375,6.5 C15.4375,1.56395505 11.436045,-2.4375 6.5,-2.4375 C1.56395505,-2.4375 -2.4375,1.56395505 -2.4375,6.5 C-2.4375,11.436045 1.56395505,15.4375 6.5,15.4375 Z M11.2042794,6.16983824 C11.1285735,6.04366176 11.0018713,5.97426471 10.8469547,5.97426471 L10.8448517,5.97426471 C10.5527181,5.97531618 10.2011765,6.09115319 9.92744363,6.27638725 C9.67491544,6.44725123 9.30882843,6.76391912 8.99987132,7.30384926 C8.9418652,7.40514093 8.84670711,7.47383701 8.74488971,7.4901348 C8.74453922,7.46665196 8.74471446,7.43983946 8.74471446,7.41442892 C8.74471446,7.36027819 8.74488971,7.29578799 8.74261152,7.22463848 L8.74261152,3.34558824 C8.74261152,2.95899755 8.42822181,2.64460784 8.04163113,2.64460784 C7.65504044,2.64460784 7.34065074,2.95899755 7.34065074,3.34558824 L7.34065074,6.06188725 C7.34065074,6.11007966 7.30122059,6.1495098 7.25302819,6.1495098 C7.20483578,6.1495098 7.16540564,6.11007966 7.16540564,6.06188725 L7.16540564,2.11887255 C7.16540564,1.73228186 6.85101593,1.41789216 6.46442525,1.41789216 C6.07783456,1.41789216 5.76344485,1.73228186 5.76344485,2.11887255 L5.76344485,6.06188725 C5.76344485,6.11007966 5.72401471,6.1495098 5.6758223,6.1495098 C5.6276299,6.1495098 5.58819975,6.11007966 5.58819975,6.06188725 L5.58819975,2.90747549 C5.58819975,2.56925245 5.31306495,2.29411765 4.97484191,2.29411765 C4.63661887,2.29411765 4.36148407,2.56925245 4.36148407,2.90747549 L4.36148407,6.41237745 C4.36148407,6.46056985 4.32205392,6.5 4.27386152,6.5 C4.22566912,6.5 4.18623897,6.46056985 4.18623897,6.41237745 L4.18623897,4.22181373 C4.18623897,3.88359069 3.91110417,3.60845588 3.57112868,3.60845588 C3.23290564,3.60845588 2.95777083,3.88359069 2.95777083,4.22181373 L2.95812132,8.98795466 C3.12775858,11.4384069 4.63083578,11.7689191 6.07888603,11.7689191 C7.27861397,11.7689191 8.35619608,11.1737868 8.88753922,10.2225564 C8.9558848,10.112152 9.14076838,9.82142034 9.36,9.47706373 C9.90816667,8.61590931 10.3673088,7.89267279 10.4351287,7.76404289 C10.5863652,7.4776924 10.7551262,7.25390441 10.923011,7.11686275 C11.0749485,6.99278922 11.1678284,6.83454289 11.2433591,6.69557353 C11.2824387,6.6231973 11.3164363,6.35735049 11.2042794,6.16983824 Z M6.41237745,14.7365196 C10.912889,14.7365196 14.5612745,11.0881341 14.5612745,6.58762255 C14.5612745,2.08711098 10.912889,-1.56127451 6.41237745,-1.56127451 C1.91186588,-1.56127451 -1.73651961,2.08711098 -1.73651961,6.58762255 C-1.73651961,11.0881341 1.91186588,14.7365196 6.41237745,14.7365196 Z" id="Combined-Shape"></path>
        </g>
    </g>
</svg>