<?xml version="1.0" encoding="UTF-8"?>
<svg width="200px" height="200px" viewBox="0 0 200 200" version="1.1" xmlns="http://www.w3.org/2000/svg" xmlns:xlink="http://www.w3.org/1999/xlink">
    <!-- Generator: Sketch 45.2 (43514) - http://www.bohemiancoding.com/sketch -->
    <title>tools</title>
    <desc>Created with Sketch.</desc>
    <defs></defs>
    <g id="Page-1" stroke="none" stroke-width="1" fill="none" fill-rule="evenodd">
        <g id="tools" fill-rule="nonzero">
            <path d="M73.8265107,98.1730994 L96.8849903,72.705653 L27.7099415,3.18596491 C23.580117,-0.943859649 16.697076,-0.943859649 12.5672515,3.18596491 L3.2748538,12.4783626 C-0.85497076,16.6081871 -0.85497076,23.4912281 3.2748538,27.6210526 L73.8265107,98.1730994 Z" id="Shape" fill="#F5A623"></path>
            <polygon id="Shape" fill="#C3C7CB" points="183.268226 197.633918 199.787524 199.699025 197.378558 182.835478 182.235867 172.510721 172.59961 182.491228"></polygon>
            <polygon id="Shape" fill="#E0E0E0" points="109.962963 119.510721 172.94347 182.491228 182.579727 172.854971 119.59922 109.874464"></polygon>
            <path d="M75.8916179,79.2444444 C74.8592593,79.2444444 74.1707602,78.9001949 73.4826511,78.2120858 L14.9762183,19.705653 C13.5996101,18.3290448 13.5996101,16.2639376 14.9762183,14.8873294 C16.3528265,13.5107212 18.4179337,13.5107212 19.7945419,14.8873294 L78.3009747,73.3937622 C79.6775828,74.7703704 79.6775828,76.8354776 78.3009747,78.2120858 C77.6124756,78.9001949 76.9239766,79.2444444 75.8916179,79.2444444" id="Shape" fill="#BC342E"></path>
            <path d="M109.962963,57.5625731 C117.878363,49.6471735 118.911111,37.2573099 110.651462,28.9976608 C94.4760234,12.8222222 85.1840156,14.5430799 66.9438596,14.5430799 C94.4760234,2.49785575 114.437037,-0.255360624 134.398051,9.03664717 C143.001949,12.8222222 146.443665,16.2639376 153.326706,23.1469786 L165.716179,35.5364522 C168.813645,38.6339181 170.878363,42.7637427 171.566862,46.8935673 C172.59922,53.4323587 170.878363,54.8089669 175.352437,59.6272904 C176.729045,61.0038986 178.794152,61.0038986 180.17076,59.6272904 C181.547368,58.2506823 183.612476,58.2506823 184.989084,59.6272904 L197.034698,71.6729045 C199.787914,74.4261209 199.787914,78.5559454 197.034698,81.3091618 L172.59961,105.74425 C169.846394,108.497466 165.716569,108.497466 162.963353,105.74425 L151.606238,94.042885 C150.22963,92.6662768 150.22963,90.6011696 151.606238,89.2245614 C152.982846,87.8479532 152.982846,85.4389864 151.606238,84.0623782 C146.787914,79.2440546 145.411306,80.9649123 138.872515,80.2768031 C134.398441,79.5883041 130.612865,77.5235867 127.5154,74.4261209 L109.962963,57.5625731" id="Shape" fill="#7F7C79"></path>
            <path d="M109.962963,57.5625731 L3.2748538,176.984795 C-0.85497076,181.11462 -1.19922027,187.997661 2.93060429,191.783626 L7.74892788,196.601949 C11.8787524,200.731774 18.4179337,200.387524 22.5477583,196.2577 L129.580117,76.4916179 L109.962963,57.5625731 Z" id="Shape" fill="#565656"></path>
            <polygon id="Shape" fill="#E15649" points="93.0994152 117.101754 102.735673 126.738012 127.17076 102.302924 116.157895 91.2900585"></polygon>
        </g>
    </g>
</svg>