<?xml version="1.0" encoding="UTF-8"?>
<svg width="200px" height="200px" viewBox="0 0 200 200" version="1.1" xmlns="http://www.w3.org/2000/svg" xmlns:xlink="http://www.w3.org/1999/xlink">
    <!-- Generator: Sketch 45.2 (43514) - http://www.bohemiancoding.com/sketch -->
    <title>rocket-launch</title>
    <desc>Created with Sketch.</desc>
    <defs></defs>
    <g id="Page-1" stroke="none" stroke-width="1" fill="none" fill-rule="evenodd">
        <g id="rocket-launch" fill-rule="nonzero">
            <polygon id="Shape" fill="#E6E2E0" points="47.5765625 105.315625 28.5621094 134.460547 65.5390625 171.437891 94.6839844 152.423047"></polygon>
            <polygon id="Shape" fill="#40C4FF" points="157.458594 103.211328 96.7882812 42.5410156 43.1425781 50.9210938 9.78515625 84.2785156 53.2246094 86.1050781 113.894922 146.775391 115.721094 190.214844 149.078516 156.857422"></polygon>
            <path d="M197.197266,2.803125 C161.340234,-7.14765625 127.931641,11.3984375 112.252344,27.0777344 C107.567578,31.7621094 37.521875,101.807812 37.521875,101.807812 L98.1921875,162.478125 C98.1921875,162.478125 161.604687,99.065625 172.922266,87.7480469 C188.601172,72.06875 207.147656,38.6597656 197.197266,2.803125 Z" id="Shape" fill="#CCC4C1"></path>
            <path d="M59.4800781,140.519922 C57.6722656,138.712109 57.6722656,135.780469 59.4800781,133.972656 L123.85,69.6027344 C125.657813,67.7949219 128.589453,67.7949219 130.397266,69.6027344 C132.205078,71.4105469 132.205078,74.3421875 130.397266,76.15 L66.0273438,140.519922 C64.2191406,142.327734 61.2878906,142.328125 59.4800781,140.519922 Z" id="Shape" fill="#40C4FF"></path>
            <circle id="Oval" fill="#FFFFFF" cx="157.462891" cy="42.5371094" r="17.1078125"></circle>
            <g id="Group" transform="translate(0.000000, 142.968750)" fill="#FFB14D">
                <path d="M1.35585938,25.8136719 C-0.451953125,24.0058594 -0.451953125,21.0742188 1.35585938,19.2664063 L19.0253906,1.596875 C20.8332031,-0.2109375 23.7648437,-0.2109375 25.5726562,1.596875 C27.3804687,3.4046875 27.3804687,6.33632813 25.5726562,8.14414063 L7.903125,25.8136719 C6.0953125,27.6214844 3.16367187,27.621875 1.35585938,25.8136719 Z" id="Shape"></path>
                <path d="M31.2175781,55.675 C29.4097656,53.8671875 29.4097656,50.9355469 31.2175781,49.1277344 L48.8871094,31.4582031 C50.6949219,29.6503906 53.6265625,29.6503906 55.434375,31.4582031 C57.2421875,33.2660156 57.2421875,36.1976563 55.434375,38.0054688 L37.7648437,55.675 C35.9566406,57.4832031 33.0253906,57.4832031 31.2175781,55.675 Z" id="Shape"></path>
                <path d="M8.840625,47.5308594 C7.0328125,45.7230469 7.0328125,42.7914063 8.840625,40.9835937 L33.6257813,16.1984375 C35.4335938,14.390625 38.3652344,14.390625 40.1730469,16.1984375 C41.9808594,18.00625 41.9808594,20.9378906 40.1730469,22.7457031 L15.3878906,47.5308594 C13.5800781,49.3386719 10.6488281,49.3386719 8.840625,47.5308594 Z" id="Shape"></path>
            </g>
        </g>
    </g>
</svg>