<?xml version="1.0" encoding="UTF-8"?>
<svg width="199px" height="199px" viewBox="0 0 199 199" version="1.1" xmlns="http://www.w3.org/2000/svg" xmlns:xlink="http://www.w3.org/1999/xlink">
    <!-- Generator: Sketch 45.2 (43514) - http://www.bohemiancoding.com/sketch -->
    <title>icn_feature</title>
    <desc>Created with Sketch.</desc>
    <defs></defs>
    <g id="Page-1" stroke="none" stroke-width="1" fill="none" fill-rule="evenodd">
        <g id="icn_feature" fill-rule="nonzero">
            <rect id="Rectangle-path" fill="#42AE5E" transform="translate(78.539996, 120.371390) rotate(-45.000000) translate(-78.539996, -120.371390) " x="-21.5502719" y="109.845175" width="200.180536" height="21.0524297"></rect>
            <path d="M142.126316,31.5789474 C140.189474,31.5789474 138.617544,30.0105263 138.617544,28.0701754 L138.617544,3.50877193 C138.617544,1.56842105 140.189474,0 142.126316,0 C144.063158,0 145.635088,1.56842105 145.635088,3.50877193 L145.635088,28.0701754 C145.635088,30.0105263 144.063158,31.5789474 142.126316,31.5789474 Z" id="Shape" fill="#F5A623"></path>
            <path d="M142.126316,112.280702 C140.189474,112.280702 138.617544,110.712281 138.617544,108.77193 L138.617544,84.2105263 C138.617544,82.2701754 140.189474,80.7017544 142.126316,80.7017544 C144.063158,80.7017544 145.635088,82.2701754 145.635088,84.2105263 L145.635088,108.77193 C145.635088,110.712281 144.063158,112.280702 142.126316,112.280702 Z" id="Shape" fill="#F5A623"></path>
            <path d="M194.757895,59.6491228 L170.196491,59.6491228 C168.259649,59.6491228 166.687719,58.0807018 166.687719,56.1403509 C166.687719,54.2 168.259649,52.6315789 170.196491,52.6315789 L194.757895,52.6315789 C196.694737,52.6315789 198.266667,54.2 198.266667,56.1403509 C198.266667,58.0807018 196.694737,59.6491228 194.757895,59.6491228 Z" id="Shape" fill="#F5A623"></path>
            <path d="M114.05614,59.6491228 L89.4947368,59.6491228 C87.5578947,59.6491228 85.9859649,58.0807018 85.9859649,56.1403509 C85.9859649,54.2 87.5578947,52.6315789 89.4947368,52.6315789 L114.05614,52.6315789 C115.992982,52.6315789 117.564912,54.2 117.564912,56.1403509 C117.564912,58.0807018 115.992982,59.6491228 114.05614,59.6491228 Z" id="Shape" fill="#F5A623"></path>
            <path d="M163.178947,38.5964912 C162.280702,38.5964912 161.382456,38.2526316 160.698246,37.5684211 C159.326316,36.1964912 159.326316,33.9789474 160.698246,32.6070175 L178.066667,15.2385965 C179.438596,13.8666667 181.65614,13.8666667 183.02807,15.2385965 C184.4,16.6105263 184.4,18.8280702 183.02807,20.2 L165.659649,37.5684211 C164.975439,38.2526316 164.077193,38.5964912 163.178947,38.5964912 Z" id="Shape" fill="#F5A623"></path>
            <path d="M180.547368,98.0701754 C179.649123,98.0701754 178.750877,97.7263158 178.066667,97.0421053 L160.698246,79.6736842 C159.326316,78.3017544 159.326316,76.0842105 160.698246,74.7122807 C162.070175,73.3403509 164.287719,73.3403509 165.659649,74.7122807 L183.02807,92.0807018 C184.4,93.4526316 184.4,95.6701754 183.02807,97.0421053 C182.340351,97.7298246 181.442105,98.0701754 180.547368,98.0701754 Z" id="Shape" fill="#F5A623"></path>
            <path d="M121.073684,38.5964912 C120.175439,38.5964912 119.277193,38.2526316 118.592982,37.5684211 L101.224561,20.2 C99.8526316,18.8280702 99.8526316,16.6105263 101.224561,15.2385965 C102.596491,13.8666667 104.814035,13.8666667 106.185965,15.2385965 L123.554386,32.6070175 C124.926316,33.9789474 124.926316,36.1964912 123.554386,37.5684211 C122.870175,38.2526316 121.97193,38.5964912 121.073684,38.5964912 Z" id="Shape" fill="#F5A623"></path>
            <rect id="Rectangle-path" fill="#13D3BA" transform="translate(131.632823, 67.278132) rotate(135.000000) translate(-131.632823, -67.278132) " x="106.412013" y="56.7536716" width="50.4416215" height="21.0489209"></rect>
        </g>
    </g>
</svg>