<?xml version="1.0" encoding="utf-8"?>
<!-- Generator: Adobe Illustrator 18.1.1, SVG Export Plug-In . SVG Version: 6.00 Build 0)  -->
<svg version="1.1" id="Layer_1" xmlns="http://www.w3.org/2000/svg" xmlns:xlink="http://www.w3.org/1999/xlink" x="0px" y="0px"
	 viewBox="0 0 566.9 168.8" enable-background="new 0 0 566.9 168.8" xml:space="preserve">
<g id="XMLID_1_">
	<g id="XMLID_1671_">
		<g id="XMLID_1783_">
			<g id="XMLID_1798_">
				<path id="XMLID_1806_" fill="#56C0EE" d="M133,49v11.2h7.1v9.8H133v20.7c0,1.6,0.3,2.8,1,3.5c0.7,0.7,1.5,1.1,2.6,1.1
					c0.7,0,1.3,0,1.7-0.1c0.4-0.1,1-0.2,1.6-0.3l1,10.4c-1.4,0.4-2.7,0.6-3.8,0.8c-1.1,0.2-2.5,0.2-4,0.2c-4.6,0-8.2-1.2-10.6-3.7
					c-2.4-2.5-3.6-6.4-3.6-11.8V69.9h-6.3v-9.8h6.3V49H133z"/>
				<path id="XMLID_1803_" fill="#56C0EE" d="M149.6,82.3c0-6.8,1.9-12.3,5.8-16.6c3.8-4.3,9.2-6.4,16.1-6.4
					c6.9,0,12.3,2.1,16.1,6.4c3.8,4.3,5.8,9.8,5.8,16.6v0.9c0,6.8-1.9,12.3-5.8,16.6s-9.2,6.4-16,6.4c-6.9,0-12.3-2.1-16.1-6.4
					c-3.8-4.3-5.8-9.8-5.8-16.6V82.3z M163.7,83.2c0,3.8,0.6,6.7,1.8,8.9c1.2,2.2,3.2,3.2,6,3.2c2.8,0,4.7-1.1,5.9-3.3
					c1.2-2.2,1.8-5.1,1.8-8.9v-0.9c0-3.7-0.6-6.6-1.8-8.8c-1.2-2.2-3.2-3.3-6-3.3c-2.8,0-4.8,1.1-5.9,3.3c-1.2,2.2-1.8,5.2-1.8,8.8
					V83.2z"/>
				<path id="XMLID_1801_" fill="#56C0EE" d="M230.3,98.5c-1.3,2.4-3.1,4.3-5.2,5.6c-2.1,1.3-4.6,2-7.4,2c-4.7,0-8.3-1.6-11-4.9
					c-2.7-3.3-4-8.4-4-15.2V60.2h14.1v25.9c0,3.5,0.5,5.9,1.4,7.3c0.9,1.3,2.3,2,4.2,2c1.5,0,2.8-0.2,4-0.6c1.1-0.4,2.1-1,2.9-1.9
					V60.2h14.1v45.1H232L230.3,98.5z"/>
				<path id="XMLID_1799_" fill="#56C0EE" d="M285.9,72.2l-4.6,0c-1.6,0-2.9,0.3-4,0.9c-1,0.6-1.8,1.4-2.3,2.5v29.7H261V60.2h13.3
					l0.5,6.6c0.9-2.4,2.2-4.2,3.8-5.5c1.6-1.3,3.4-2,5.5-2c0.6,0,1.2,0,1.7,0.1c0.5,0.1,1,0.2,1.6,0.4L285.9,72.2z"/>
			</g>
			<g id="XMLID_1784_">
				<path id="XMLID_1795_" fill="#FBB040" d="M294,83.6c0-7.3,1.5-13.1,4.6-17.6c3.1-4.4,7.4-6.7,13-6.7c2.9,0,5.4,0.6,7.5,1.7
					c2.2,1.2,4,2.8,5.5,5l1-5.9h6.5v45.4c0,5.8-1.7,10.2-5,13.3c-3.4,3.1-8.2,4.6-14.6,4.6c-2.2,0-4.5-0.3-7-0.9
					c-2.5-0.6-4.7-1.4-6.7-2.4l1.3-6.4c1.6,0.8,3.5,1.5,5.7,2c2.2,0.5,4.4,0.8,6.6,0.8c4,0,6.9-0.9,8.7-2.7c1.8-1.8,2.7-4.6,2.7-8.3
					v-5.1c-1.5,1.9-3.2,3.3-5.3,4.3c-2.1,1-4.4,1.5-7.1,1.5c-5.5,0-9.8-2-12.9-6c-3.1-4-4.6-9.2-4.6-15.7V83.6z M302.2,84.4
					c0,4.5,0.9,8.2,2.8,10.9c1.9,2.8,4.7,4.1,8.6,4.1c2.5,0,4.5-0.6,6.2-1.7c1.7-1.1,3-2.7,4.1-4.8V72.3c-1.1-1.9-2.4-3.4-4.1-4.6
					c-1.7-1.1-3.7-1.7-6.1-1.7c-3.9,0-6.8,1.6-8.7,4.9s-2.8,7.5-2.8,12.7V84.4z"/>
				<path id="XMLID_1792_" fill="#FBB040" d="M367,106.2c-6.5,0-11.5-2.1-15.2-6.2s-5.4-9.6-5.4-16.3v-1.8c0-6.5,1.9-11.8,5.6-16.1
					c3.7-4.2,8.3-6.4,13.7-6.4c6,0,10.6,1.9,13.6,5.6c3,3.8,4.5,8.7,4.5,15v4.3h-28.9l-0.1,0.2c0,4.5,1,8.2,3,11s5.1,4.2,9.2,4.2
					c2.8,0,5.2-0.4,7.3-1.2c2.1-0.8,3.9-1.9,5.4-3.3l3.2,5.3c-1.6,1.6-3.7,2.9-6.4,3.9C373.9,105.6,370.7,106.2,367,106.2z
					 M365.7,65.8c-2.9,0-5.2,1.1-7.1,3.3c-1.9,2.2-3,5-3.4,8.5l0.1,0.2h20.3v-0.7c0-3.3-0.8-6-2.4-8.1
					C371.5,66.9,369,65.8,365.7,65.8z"/>
				<path id="XMLID_1790_" fill="#FBB040" d="M415.2,99.8c2.5,0,4.7-0.8,6.6-2.5c1.9-1.7,2.8-3.7,2.8-6.2h7.4l0.1,0.3
					c0.1,3.9-1.6,7.3-5,10.4c-3.4,3-7.4,4.5-12,4.5c-6.3,0-11.2-2.2-14.7-6.5c-3.4-4.3-5.2-9.7-5.2-16.1v-1.8c0-6.4,1.7-11.7,5.2-16
					c3.5-4.3,8.3-6.5,14.7-6.5c5,0,9.2,1.6,12.4,4.7c3.2,3.1,4.8,6.9,4.6,11.5l-0.1,0.3h-7.5c0-2.8-0.9-5.1-2.7-7
					c-1.8-1.9-4.1-2.9-6.8-2.9c-4,0-7,1.6-8.8,4.7c-1.8,3.1-2.8,6.9-2.8,11.4v1.8c0,4.5,0.9,8.4,2.7,11.5
					C408.1,98.2,411.1,99.8,415.2,99.8z"/>
				<path id="XMLID_1788_" fill="#FBB040" d="M458.7,84.5h-4.2v20.8h-8.2v-65h8.2v37.7h4.1l13.6-17.8h9.8L465.6,81l17.8,24.3h-9.7
					L458.7,84.5z"/>
				<path id="XMLID_1785_" fill="#FBB040" d="M492.3,82.3c0-6.7,1.8-12.2,5.4-16.5c3.6-4.3,8.5-6.5,14.7-6.5
					c6.3,0,11.2,2.2,14.8,6.5c3.6,4.3,5.4,9.8,5.4,16.5v0.9c0,6.7-1.8,12.2-5.4,16.5c-3.6,4.3-8.5,6.4-14.8,6.4
					c-6.2,0-11.2-2.1-14.8-6.4c-3.6-4.3-5.4-9.8-5.4-16.5V82.3z M500.6,83.2c0,4.8,1,8.7,3,11.8c2,3.1,5,4.7,9,4.7
					c3.9,0,6.9-1.6,8.9-4.7c2-3.1,3-7.1,3-11.8v-0.9c0-4.7-1-8.7-3.1-11.8c-2-3.1-5-4.7-9-4.7c-3.9,0-6.9,1.6-8.9,4.7
					c-2,3.1-3,7.1-3,11.8V83.2z"/>
			</g>
		</g>
	</g>
	<g id="XMLID_1203_">
		<ellipse id="XMLID_1210_" fill="#909090" cx="60.9" cy="124.9" rx="16.1" ry="2"/>
		<path id="XMLID_1207_" fill="#FBB040" d="M61.1,39.2c-14.9,0-26.9,12.1-26.9,26.9c0,14.9,26.9,50.1,26.9,50.1S88,81,88,66.1
			C88,51.2,76,39.2,61.1,39.2z M41.5,66.1c0-10.8,8.8-19.6,19.6-19.6s19.6,8.8,19.6,19.6s-19.6,38.2-19.6,38.2S41.5,76.9,41.5,66.1z
			"/>
		<path id="XMLID_1206_" fill="#56C0EE" d="M71.8,61.5c-1.6,0-16,5.3-16.3,7.8c-0.2,1.2,2.8,2.1,9.8,4.1c6.6,1.9,8.9,3.7,7.4,5.8
			c-2.1,2.9-8.4,3.8-9.7,5.9c-1.6,2.6,2.6,4.2,6.3,4.3c4.4-7.3,9-15.9,9.9-21.4C77.2,65.3,73.4,61.5,71.8,61.5z"/>
		<path id="XMLID_1205_" fill="#909090" d="M66.9,62.1c0,0-5-5-6.4-5.4c-1.3-0.3-10.9,9.5-10.9,9.5l1.9-3.4c0,0-1.8-2-2.5-2.1
			c-1.1-0.1-4.9,4-6.1,5.5c0.1,4.2,3.2,11.1,7,17.8c0.4-0.8,1.4-1.8,3.3-2.8c4.3-2.4,5.3-3.2,5.2-4.3c-0.5-3-12-3.6-10.8-7
			C48.3,67.7,66.9,62.1,66.9,62.1z"/>
		<path id="XMLID_1204_" fill="#97DAF4" d="M76.3,56.1l-12.8,0c0,0,2.8-0.4,4-1.1c1.9-1,4.1,0.5,4.9-0.5c0.4-0.5,1.1-0.9,1.8-1.1
			c-3.3-3.5-8-5.6-13.1-5.6c-4.3,0-8.3,1.5-11.4,4.1c0.3,0,0.6,0,0.9-0.2c1.5-0.6,2.6-0.5,3.7,0.2c1.1,0.7,2.8,1.5,4.8,1.5H48
			c-2.6,2.7-4.4,6.2-4.9,10.1c1.1-1,5-4.8,5.9-4.8c1.6,0,2.9,2.9,2.9,2.9s7-7,8.4-7c1.4,0,7.4,5.9,7.4,5.9s2.6-1.6,3.7-1.6
			c1,0,5.3,3.2,7.9,6.7C79.2,62.2,78.1,58.9,76.3,56.1z"/>
	</g>
</g>
</svg>
