<?xml version="1.0" encoding="UTF-8" standalone="no"?>
<svg width="436px" height="25px" viewBox="0 0 436 25" version="1.1" xmlns="http://www.w3.org/2000/svg" xmlns:xlink="http://www.w3.org/1999/xlink">
    <!-- Generator: Sketch 40.3 (33839) - http://www.bohemiancoding.com/sketch -->
    <title>Group</title>
    <desc>Created with Sketch.</desc>
    <defs></defs>
    <g id="Page-1" stroke="none" stroke-width="1" fill="none" fill-rule="evenodd">
        <g id="Group" transform="translate(0.000000, -2.000000)">
            <rect id="Rectangle-2" fill="#4A4A4A" x="400" y="9" width="14" height="2"></rect>
            <path d="M319.445312,10.6640625 C319.445312,10.3880195 319.308595,10.1705737 319.035156,10.0117188 C318.761717,9.85286379 318.32292,9.71093812 317.71875,9.5859375 C315.708323,9.16406039 314.703125,8.30990227 314.703125,7.0234375 C314.703125,6.27343375 315.01432,5.64713793 315.636719,5.14453125 C316.259118,4.64192457 317.072912,4.390625 318.078125,4.390625 C319.151047,4.390625 320.009111,4.64322664 320.652344,5.1484375 C321.295576,5.65364836 321.617188,6.3098918 321.617188,7.1171875 L319.359375,7.1171875 C319.359375,6.79426922 319.255209,6.5273448 319.046875,6.31640625 C318.838541,6.1054677 318.513023,6 318.070312,6 C317.690102,6 317.395834,6.08593664 317.1875,6.2578125 C316.979166,6.42968836 316.875,6.64843617 316.875,6.9140625 C316.875,7.16406375 316.993488,7.36588465 317.230469,7.51953125 C317.467449,7.67317785 317.867185,7.80598902 318.429688,7.91796875 C318.99219,8.02994848 319.466144,8.1562493 319.851562,8.296875 C321.044277,8.73437719 321.640625,9.49218211 321.640625,10.5703125 C321.640625,11.3411497 321.309899,11.9648414 320.648438,12.4414062 C319.986976,12.9179711 319.132818,13.15625 318.085938,13.15625 C317.377601,13.15625 316.748701,13.0299492 316.199219,12.7773438 C315.649737,12.5247383 315.218752,12.1783876 314.90625,11.7382812 C314.593748,11.2981749 314.4375,10.8229192 314.4375,10.3125 L316.578125,10.3125 C316.598958,10.7135437 316.747394,11.0208323 317.023438,11.234375 C317.299481,11.4479177 317.669269,11.5546875 318.132812,11.5546875 C318.565106,11.5546875 318.891926,11.4726571 319.113281,11.3085938 C319.334637,11.1445304 319.445312,10.9296888 319.445312,10.6640625 L319.445312,10.6640625 Z" id="s" fill="#4A4A4A"></path>
            <rect id="Rectangle" fill="#4A4A4A" transform="translate(318.500000, 9.000000) rotate(-90.000000) translate(-318.500000, -9.000000) " x="318" y="4" width="1" height="10"></rect>
            <path d="M336.28125,10 C336.28125,10.5625028 336.479165,11.046873 336.875,11.453125 C337.270835,11.859377 337.760414,12.0625 338.34375,12.0625 L341,12.0625 L341,13.34375 L338.34375,13.34375 C337.427079,13.34375 336.640628,13.0156283 335.984375,12.359375 C335.328122,11.7031217 335,10.9166713 335,10 C335,9.08332875 335.328122,8.29687828 335.984375,7.640625 C336.640628,6.98437172 337.427079,6.65625 338.34375,6.65625 L341,6.65625 L341,7.9375 L338.34375,7.9375 C337.760414,7.9375 337.270835,8.14062297 336.875,8.546875 C336.479165,8.95312703 336.28125,9.43749719 336.28125,10 L336.28125,10 Z M339,10.65625 L339,9.34375 L344.34375,9.34375 L344.34375,10.65625 L339,10.65625 Z M345,6.65625 C345.916671,6.65625 346.703122,6.98437172 347.359375,7.640625 C348.015628,8.29687828 348.34375,9.08332875 348.34375,10 C348.34375,10.9166713 348.015628,11.7031217 347.359375,12.359375 C346.703122,13.0156283 345.916671,13.34375 345,13.34375 L342.34375,13.34375 L342.34375,12.0625 L345,12.0625 C345.562503,12.0625 346.046873,11.859377 346.453125,11.453125 C346.859377,11.046873 347.0625,10.5625028 347.0625,10 C347.0625,9.43749719 346.859377,8.95312703 346.453125,8.546875 C346.046873,8.14062297 345.562503,7.9375 345,7.9375 L342.34375,7.9375 L342.34375,6.65625 L345,6.65625 Z" id="" fill="#4A4A4A"></path>
            <path d="M358.28125,10 C358.28125,10.5625028 358.479165,11.046873 358.875,11.453125 C359.270835,11.859377 359.760414,12.0625 360.34375,12.0625 L363,12.0625 L363,13.34375 L360.34375,13.34375 C359.427079,13.34375 358.640628,13.0156283 357.984375,12.359375 C357.328122,11.7031217 357,10.9166713 357,10 C357,9.08332875 357.328122,8.29687828 357.984375,7.640625 C358.640628,6.98437172 359.427079,6.65625 360.34375,6.65625 L363,6.65625 L363,7.9375 L360.34375,7.9375 C359.760414,7.9375 359.270835,8.14062297 358.875,8.546875 C358.479165,8.95312703 358.28125,9.43749719 358.28125,10 L358.28125,10 Z M361,10.65625 L361,9.34375 L366.34375,9.34375 L366.34375,10.65625 L361,10.65625 Z M367,6.65625 C367.916671,6.65625 368.703122,6.98437172 369.359375,7.640625 C370.015628,8.29687828 370.34375,9.08332875 370.34375,10 C370.34375,10.9166713 370.015628,11.7031217 369.359375,12.359375 C368.703122,13.0156283 367.916671,13.34375 367,13.34375 L364.34375,13.34375 L364.34375,12.0625 L367,12.0625 C367.562503,12.0625 368.046873,11.859377 368.453125,11.453125 C368.859377,11.046873 369.0625,10.5625028 369.0625,10 C369.0625,9.43749719 368.859377,8.95312703 368.453125,8.546875 C368.046873,8.14062297 367.562503,7.9375 367,7.9375 L364.34375,7.9375 L364.34375,6.65625 L367,6.65625 Z" id="-copy" fill="#4A4A4A"></path>
            <path d="M381.34375,10.65625 L381.34375,9.34375 L390.65625,9.34375 L390.65625,10.65625 L381.34375,10.65625 Z M380,13.34375 L380,12 L389.34375,12 L389.34375,13.34375 L380,13.34375 Z M382.65625,6.65625 L392,6.65625 L392,8 L382.65625,8 L382.65625,6.65625 Z" id="" fill="#4A4A4A"></path>
            <text id="" font-family="Material-Design-Iconic-Font" font-size="16" font-weight="500" fill="#4A4A4A">
                <tspan x="422" y="16"></tspan>
            </text>
            <text id="-copy" transform="translate(433.500000, 10.000000) scale(-1, 1) translate(-433.500000, -10.000000) " font-family="Material-Design-Iconic-Font" font-size="16" font-weight="500" fill="#4A4A4A">
                <tspan x="431" y="16"></tspan>
            </text>
            <polygon id="T" fill="#4A4A4A" points="9.859375 8.88671875 7.64257812 8.88671875 7.64257812 15 6.41699219 15 6.41699219 8.88671875 4.21972656 8.88671875 4.21972656 7.890625 9.859375 7.890625"></polygon>
            <polygon id="T-Copy" fill="#4A4A4A" points="17.375 5.21875 13.828125 5.21875 13.828125 15 11.8671875 15 11.8671875 5.21875 8.3515625 5.21875 8.3515625 3.625 17.375 3.625"></polygon>
            <polygon id="" fill="#4A4A4A" points="16 8.34375 21.6599998 8.34375 18.8432863 11.1604635"></polygon>
            <polygon id="" fill="#4A4A4A" transform="translate(4.330000, 23.915399) scale(1, -1) translate(-4.330000, -23.915399) " points="0.5 21.0140845 8.15999985 21.0140845 4.34328631 26.8167135"></polygon>
            <polygon id="-copy-2" fill="#4A4A4A" points="7.5 21 15.1599998 21 11.3432863 26.802629"></polygon>
            <polygon id="-copy" fill="#4A4A4A" points="20 21.34375 25.6599998 21.34375 22.8432863 24.1604635"></polygon>
            <polygon id="" fill="#4A4A4A" points="38 8.34375 43.6599998 8.34375 40.8432863 11.1604635"></polygon>
            <polygon id="" fill="#4A4A4A" transform="translate(204.330000, 9.159530) rotate(90.000000) translate(-204.330000, -9.159530) " points="202 8 206.66 8 204.340939 10.319061"></polygon>
            <polygon id="" fill="#4A4A4A" transform="translate(234.330000, 9.159530) scale(-1, 1) rotate(90.000000) translate(-234.330000, -9.159530) " points="232 8 236.66 8 234.340939 10.319061"></polygon>
            <path d="M33.5078125,10.9492188 L29.9121094,10.9492188 L29.2285156,13 L27.0478516,13 L30.7529297,3.046875 L32.6533203,3.046875 L36.3789062,13 L34.1982422,13 L33.5078125,10.9492188 Z M30.4658203,9.28808594 L32.9541016,9.28808594 L31.703125,5.5625 L30.4658203,9.28808594 Z" id="A" fill="#4A4A4A"></path>
            <path d="M50.9521484,15 L50.9521484,4.3359375 L54.6875,4.3359375 C55.9814518,4.3359375 56.9628873,4.58373776 57.6318359,5.0793457 C58.3007846,5.57495365 58.6352539,6.30126475 58.6352539,7.25830078 C58.6352539,7.78076433 58.5009779,8.24096481 58.2324219,8.63891602 C57.9638658,9.03686722 57.5903344,9.32861235 57.1118164,9.51416016 C57.6586941,9.65087959 58.089598,9.92675574 58.404541,10.3417969 C58.719484,10.756838 58.8769531,11.2646454 58.8769531,11.8652344 C58.8769531,12.8906301 58.549808,13.6669896 57.8955078,14.1943359 C57.2412077,14.7216823 56.3085998,14.9902343 55.0976562,15 L50.9521484,15 Z M53.1494141,10.3564453 L53.1494141,13.2348633 L55.0317383,13.2348633 C55.549319,13.2348633 55.9533677,13.1115735 56.2438965,12.8649902 C56.5344253,12.618407 56.6796875,12.2778342 56.6796875,11.8432617 C56.6796875,10.8666943 56.1743215,10.3710938 55.1635742,10.3564453 L53.1494141,10.3564453 Z M53.1494141,8.80371094 L54.7753906,8.80371094 C55.8837946,8.78417959 56.4379883,8.34228948 56.4379883,7.47802734 C56.4379883,6.99462649 56.2976088,6.64672958 56.0168457,6.43432617 C55.7360826,6.22192277 55.2929718,6.11572266 54.6875,6.11572266 L53.1494141,6.11572266 L53.1494141,8.80371094 Z" id="B" fill="#4A4A4A"></path>
            <polygon id="I" fill="#4A4A4A" points="77.4389648 15 75.2929688 15 77.1386719 4.3359375 79.284668 4.3359375"></polygon>
            <text id="U" font-family="Roboto-Regular, Roboto" font-size="15" font-weight="normal" fill="#4A4A4A">
                <tspan x="93" y="14">U</tspan>
            </text>
            <path d="M25.5,15 L38.5,15" id="Line" stroke="#4A4A4A" stroke-width="2" stroke-linecap="square"></path>
            <path d="M93.5,15.5 L101.5,15.5" id="Line-Copy" stroke="#4A4A4A" stroke-linecap="square"></path>
            <text id="" font-family="FontAwesome" font-size="15" font-weight="normal" fill="#4A4A4A">
                <tspan x="112" y="15"></tspan>
            </text>
            <text id="" font-family="FontAwesome" font-size="15" font-weight="normal" fill="#4A4A4A">
                <tspan x="135" y="15"></tspan>
            </text>
            <path d="M203,15 L203,13.7402344 L214.25,13.7402344 L214.25,15 L203,15 Z M206.75,12.5097656 L206.75,11.25 L214.25,11.25 L214.25,12.5097656 L206.75,12.5097656 Z M207,9.99023438 L207,8.75976562 L214.25,8.75976562 L214.25,9.99023438 L207,9.99023438 Z M206.75,7.5 L206.75,6.24023438 L214.25,6.24023438 L214.25,7.5 L206.75,7.5 Z M203,3.75 L214.25,3.75 L214.25,5.00976562 L203,5.00976562 L203,3.75 Z" id="" fill="#4A4A4A"></path>
            <path d="M231.5,11.25 L231.5,12.5097656 L224,12.5097656 L224,11.25 L231.5,11.25 Z M231.5,6.24023438 L231.5,7.5 L224,7.5 L224,6.24023438 L231.5,6.24023438 Z M224,9.99023438 L224,8.75976562 L231.25,8.75976562 L231.25,9.99023438 L224,9.99023438 Z M224,15 L224,13.7402344 L235.25,13.7402344 L235.25,15 L224,15 Z M224,3.75 L235.25,3.75 L235.25,5.00976562 L224,5.00976562 L224,3.75 Z" id="" fill="#4A4A4A"></path>
            <text id="-copy" font-family="Material-Design-Iconic-Font" font-size="15" font-weight="500" fill="#4A4A4A">
                <tspan x="246" y="15"></tspan>
            </text>
            <text id="" font-family="Material-Design-Iconic-Font" font-size="15" font-weight="500" fill="#4A4A4A">
                <tspan x="292" y="15"></tspan>
            </text>
            <text id="" font-family="Material-Design-Iconic-Font" font-size="15" font-weight="500" fill="#4A4A4A">
                <tspan x="269" y="15"></tspan>
            </text>
            <polygon id="" fill="#4A4A4A" points="167.759766 5.88867188 164.244141 9.375 167.759766 12.8613281 166.880859 13.7402344 163.365234 10.2539062 159.878906 13.7402344 159 12.8613281 162.486328 9.375 159 5.88867188 159.878906 5.00976562 163.365234 8.49609375 166.880859 5.00976562"></polygon>
            <path d="M172.820801,17 L168.435059,17 L168.435059,16.1298828 L170.504883,13.9238281 C170.789064,13.6132797 170.999267,13.3422863 171.135498,13.1108398 C171.271729,12.8793934 171.339844,12.659669 171.339844,12.4516602 C171.339844,12.167479 171.268067,11.9440926 171.124512,11.7814941 C170.980956,11.6188957 170.77588,11.5375977 170.509277,11.5375977 C170.222167,11.5375977 169.99585,11.6364736 169.830322,11.8342285 C169.664794,12.0319834 169.582031,12.2919906 169.582031,12.6142578 L168.307617,12.6142578 C168.307617,12.2246074 168.400634,11.868654 168.58667,11.5463867 C168.772706,11.2241195 169.035643,10.9714365 169.375488,10.7883301 C169.715334,10.6052237 170.100584,10.5136719 170.53125,10.5136719 C171.190433,10.5136719 171.702391,10.6718734 172.067139,10.9882812 C172.431887,11.3046891 172.614258,11.751462 172.614258,12.3286133 C172.614258,12.6450211 172.532227,12.9672835 172.368164,13.2954102 C172.204101,13.6235368 171.922854,14.0058572 171.524414,14.4423828 L170.069824,15.9760742 L172.820801,15.9760742 L172.820801,17 Z" id="2" fill="#4A4A4A"></path>
            <path d="M195.013184,9 L190.627441,9 L190.627441,8.12988281 L192.697266,5.92382812 C192.981447,5.6132797 193.19165,5.34228631 193.327881,5.11083984 C193.464112,4.87939337 193.532227,4.65966901 193.532227,4.45166016 C193.532227,4.16747905 193.46045,3.94409261 193.316895,3.78149414 C193.173339,3.61889567 192.968263,3.53759766 192.70166,3.53759766 C192.414549,3.53759766 192.188233,3.63647362 192.022705,3.83422852 C191.857177,4.03198341 191.774414,4.29199058 191.774414,4.61425781 L190.5,4.61425781 C190.5,4.22460743 190.593017,3.86865396 190.779053,3.54638672 C190.965089,3.22411948 191.228026,2.97143646 191.567871,2.78833008 C191.907717,2.60522369 192.292967,2.51367188 192.723633,2.51367188 C193.382816,2.51367188 193.894774,2.67187342 194.259521,2.98828125 C194.624269,3.30468908 194.806641,3.75146196 194.806641,4.32861328 C194.806641,4.64502111 194.72461,4.96728352 194.560547,5.29541016 C194.396484,5.6235368 194.115236,6.00585719 193.716797,6.44238281 L192.262207,7.97607422 L195.013184,7.97607422 L195.013184,9 Z" id="2-copy" fill="#4A4A4A"></path>
            <polygon id="-copy" fill="#4A4A4A" points="189.759766 5.88867188 186.244141 9.375 189.759766 12.8613281 188.880859 13.7402344 185.365234 10.2539062 181.878906 13.7402344 181 12.8613281 184.486328 9.375 181 5.88867188 181.878906 5.00976562 185.365234 8.49609375 188.880859 5.00976562"></polygon>
            <rect id="Rectangle" fill="#4A4A4A" transform="translate(364.000000, 9.500000) rotate(13.000000) translate(-364.000000, -9.500000) " x="363" y="2" width="2" height="15"></rect>
            <rect id="Rectangle-Copy" fill="#4A4A4A" transform="translate(428.774294, 9.500000) rotate(13.000000) translate(-428.774294, -9.500000) " x="428.274294" y="2" width="1" height="15"></rect>
        </g>
    </g>
</svg>