<?xml version="1.0" encoding="UTF-8" standalone="no"?>
<svg width="56px" height="56px" viewBox="0 0 56 56" version="1.1" xmlns="http://www.w3.org/2000/svg" xmlns:xlink="http://www.w3.org/1999/xlink">
    <!-- Generator: Sketch 41.2 (35397) - http://www.bohemiancoding.com/sketch -->
    <title>icn_call</title>
    <desc>Created with Sketch.</desc>
    <defs></defs>
    <g id="Page-1" stroke="none" stroke-width="1" fill="none" fill-rule="evenodd">
        <g id="icn_call">
            <g id="Page-1">
                <g id="Group">
                    <rect id="Rectangle" fill="#42AE5E" x="0" y="0" width="56" height="56" rx="28"></rect>
                    <path d="M20.4140625,26.671875 C22.6171985,31.0312718 25.921853,34.3359262 30.328125,36.5859375 L33.6328125,33.28125 C34.0546896,32.8124977 34.5703095,32.6953113 35.1796875,32.9296875 C36.8671959,33.4921903 38.6484281,33.7734375 40.5234375,33.7734375 C40.8984394,33.7734375 41.2382797,33.9140611 41.5429688,34.1953125 C41.8476578,34.4765639 42,34.8281229 42,35.25 L42,40.5234375 C42,40.8984394 41.8476578,41.2382797 41.5429688,41.5429688 C41.2382797,41.8476578 40.8984394,42 40.5234375,42 C35.8827893,42 31.6054883,40.8632926 27.6914062,38.5898438 C23.7773242,36.3163949 20.6836051,33.2226758 18.4101562,29.3085938 C16.1367074,25.3945117 15,21.1172107 15,16.4765625 C15,16.1015606 15.1523422,15.7617203 15.4570312,15.4570312 C15.7617203,15.1523422 16.1015606,15 16.4765625,15 L21.75,15 C22.1718771,15 22.5234361,15.1523422 22.8046875,15.4570312 C23.0859389,15.7617203 23.2265625,16.1015606 23.2265625,16.4765625 C23.2265625,18.3515719 23.5078097,20.1328041 24.0703125,21.8203125 C24.2578134,22.4296905 24.1406271,22.9453104 23.71875,23.3671875 L20.4140625,26.671875 Z" id="" fill="#FFFFFF"></path>
                </g>
            </g>
        </g>
    </g>
</svg>